<!--?xml version="1.0" standalone="no"?-->
              <svg id="sw-js-blob-svg" viewBox="0 0 100 100" xmlns="http://www.w3.org/2000/svg" version="1.1">
                    <defs> 
                        <linearGradient id="sw-gradient" x1="0" x2="1" y1="1" y2="0">
                            <stop id="stop1" stop-color="rgba(255, 249.351, 209.09, 1)" offset="0%"></stop>
                            <stop id="stop2" stop-color="rgba(255, 255, 255, 1)" offset="100%"></stop>
                        </linearGradient>
                    </defs>
                <path fill="url(#sw-gradient)" d="M14.7,-15.7C21.7,-11.7,31.9,-9.5,34.1,-4.8C36.4,-0.1,30.8,7.2,25.7,13.7C20.6,20.1,16,25.7,9.5,29.6C3,33.5,-5.4,35.7,-10.6,32.4C-15.7,29.1,-17.6,20.2,-19.5,13.1C-21.5,6,-23.5,0.8,-24.9,-6.7C-26.3,-14.1,-27.2,-23.8,-22.9,-28.3C-18.7,-32.8,-9.4,-32.1,-2.7,-28.8C3.9,-25.5,7.7,-19.7,14.7,-15.7Z" width="100%" height="100%" transform="translate(50 50)" stroke-width="0" style="transition: all 0.3s ease 0s;" stroke="url(#sw-gradient)"></path>
              </svg>